HIERARCHY
ROOT Hips
{
	OFFSET 0.00000 0.00000 0.00000
	CHANNELS 6 Xposition Yposition Zposition Zrotation Yrotation Xrotation 
	JOINT LHipJoint
	{
		OFFSET 0 0 0
		CHANNELS 3 Zrotation Yrotation Xrotation
		JOINT LeftUpLeg
		{
			OFFSET 1.53794 -1.55850 0.93568
			CHANNELS 3 Zrotation Yrotation Xrotation
			JOINT LeftLeg
			{
				OFFSET 2.28545 -6.27922 0.00000
				CHANNELS 3 Zrotation Yrotation Xrotation
				JOINT LeftFoot
				{
					OFFSET 2.37329 -6.52057 0.00000
					CHANNELS 3 Zrotation Yrotation Xrotation
					JOINT LeftToeBase
					{
						OFFSET 0.14846 -0.40788 2.09160
						CHANNELS 3 Zrotation Yrotation Xrotation
						End Site
						{
							OFFSET 0.00000 -0.00000 1.07536
						}
					}
				}
			}
		}
	}
	JOINT RHipJoint
	{
		OFFSET 0 0 0
		CHANNELS 3 Zrotation Yrotation Xrotation
		JOINT RightUpLeg
		{
			OFFSET -1.78290 -1.55850 0.93568
			CHANNELS 3 Zrotation Yrotation Xrotation
			JOINT RightLeg
			{
				OFFSET -2.24144 -6.15831 0.00000
				CHANNELS 3 Zrotation Yrotation Xrotation
				JOINT RightFoot
				{
					OFFSET -2.35091 -6.45907 0.00000
					CHANNELS 3 Zrotation Yrotation Xrotation
					JOINT RightToeBase
					{
						OFFSET -0.14428 -0.39641 2.07944
						CHANNELS 3 Zrotation Yrotation Xrotation
						End Site
						{
							OFFSET -0.00000 -0.00000 1.06864
						}
					}
				}
			}
		}
	}
	JOINT LowerBack
	{
		OFFSET 0 0 0
		CHANNELS 3 Zrotation Yrotation Xrotation
		JOINT Spine
		{
			OFFSET -0.08841 2.11430 -0.15818
			CHANNELS 3 Zrotation Yrotation Xrotation
			JOINT Spine1
			{
				OFFSET -0.00033 2.12605 -0.08097
				CHANNELS 3 Zrotation Yrotation Xrotation
				JOINT Neck
				{
					OFFSET 0 0 0
					CHANNELS 3 Zrotation Yrotation Xrotation
					JOINT Neck1
					{
						OFFSET 0.04431 1.59447 0.43193
						CHANNELS 3 Zrotation Yrotation Xrotation
						JOINT Head
						{
							OFFSET 0.00455 1.62017 -0.58852
							CHANNELS 3 Zrotation Yrotation Xrotation
							End Site
							{
								OFFSET -0.00920 1.72955 -0.25850
							}
						}
					}
				}
				JOINT LeftShoulder
				{
					OFFSET 0 0 0
					CHANNELS 3 Zrotation Yrotation Xrotation
					JOINT LeftArm
					{
						OFFSET 2.86490 1.49927 -0.33774
						CHANNELS 3 Zrotation Yrotation Xrotation
						JOINT LeftForeArm
						{
							OFFSET 4.87408 -0.00000 0.00000
							CHANNELS 3 Zrotation Yrotation Xrotation
							JOINT LeftHand
							{
								OFFSET 2.76729 -0.00000 0.00000
								CHANNELS 3 Zrotation Yrotation Xrotation
								JOINT LeftFingerBase
								{
									OFFSET 0 0 0
									CHANNELS 3 Zrotation Yrotation Xrotation
									JOINT LeftHandIndex1
									{
										OFFSET 0.98922 -0.00000 0.00000
										CHANNELS 3 Zrotation Yrotation Xrotation
										End Site
										{
											OFFSET 0.79753 -0.00000 0.00000
										}
									}
								}
								JOINT LThumb
								{
									OFFSET 0 0 0
									CHANNELS 3 Zrotation Yrotation Xrotation
									End Site
									{
										OFFSET 0.80972 -0.00000 0.80972
									}
								}
							}
						}
					}
				}
				JOINT RightShoulder
				{
					OFFSET 0 0 0
					CHANNELS 3 Zrotation Yrotation Xrotation
					JOINT RightArm
					{
						OFFSET -2.94414 1.45463 -0.25291
						CHANNELS 3 Zrotation Yrotation Xrotation
						JOINT RightForeArm
						{
							OFFSET -4.71404 -0.00000 0.00000
							CHANNELS 3 Zrotation Yrotation Xrotation
							JOINT RightHand
							{
								OFFSET -2.83468 -0.00000 0.00000
								CHANNELS 3 Zrotation Yrotation Xrotation
								JOINT RightFingerBase
								{
									OFFSET 0 0 0
									CHANNELS 3 Zrotation Yrotation Xrotation
									JOINT RightHandIndex1
									{
										OFFSET -0.86820 -0.00000 0.00000
										CHANNELS 3 Zrotation Yrotation Xrotation
										End Site
										{
											OFFSET -0.69996 -0.00000 0.00000
										}
									}
								}
								JOINT RThumb
								{
									OFFSET 0 0 0
									CHANNELS 3 Zrotation Yrotation Xrotation
									End Site
									{
										OFFSET -0.71065 -0.00000 0.71065
									}
								}
							}
						}
					}
				}
			}
		}
	}
}
MOTION
Frames: 6
Frame Time: 0.0512821
0.00 0.00 0.00 0 0 0 0 0 0 -21 0 0 0 0 0 0 0 0 0 0 0 0 0 0 21 0 0 0 0 0 0 0 0 0 0 0 0 0 0 0 0 0 0 0 0 0 0 -16 0 0 21 0 0 11 0 0 0 -8 0 0 0 0 0 0 0 0 0 0 0 0 0 0 0 0 0 0 0 0 8 0 0 0 0 0 0 0 0 0 0 0 0 0 0 0 0 0
0.00 0.00 0.00 177.3360 -2.6759 -169.7260 0.0000 0.0000 0.0000 -15.5937 -22.4259 -37.3801 6.2106 14.6293 45.8211 -0.3600 16.1720 7.1782 0.1022 -2.0613 -5.6751 0.0000 0.0000 0.0000 23.0992 4.6625 -6.4610 -4.0284 -12.1980 36.4362 1.7168 -25.8810 4.2116 -2.6875 -10.1711 29.5325 -5.3321 4.8874 -2.8010 -0.9792 6.7513 2.9009 2.3414 3.1743 4.0760 -2.9229 -4.0774 -35.6997 4.9765 -10.1710 40.5487 -0.1005 -3.9217 25.1696 -0.0000 0.0000 0.0000 -69.0424 31.7456 52.7418 101.3070 -59.5114 -69.7761 -0.0000 -0.0000 17.5761 12.2065 2.8253 0.6109 -7.1250 0.0000 -0.0000 -11.6246 32.7136 3.5617 -0.0000 0.0000 0.0000 81.3841 -1.9859 49.2727 -98.0140 59.7559 -66.9346 0.0000 0.0000 8.0106 -10.1460 -0.6793 0.1216 7.1250 -0.0000 -0.0000 12.9500 -30.5213 4.6861
0.00 0.00 0.00 179.1190 -2.5134 -172.2030 0.0000 0.0000 0.0000 -20.4895 -13.2175 -30.7301 4.1665 12.3787 37.0853 -0.1196 14.2694 8.5534 0.2579 -3.2672 -9.0237 0.0000 0.0000 0.0000 23.9504 -0.9200 -5.5570 -7.8511 -16.0087 52.0248 1.8893 -30.5069 9.7416 -1.4290 -7.5587 21.3816 -4.0144 3.3316 -2.2619 -0.9409 4.5796 2.7312 1.5127 2.1452 3.8481 -3.4732 -3.1115 -36.1302 5.5556 -9.5920 42.2822 0.4493 -3.9100 27.4454 0.0000 -0.0000 0.0000 -71.0031 36.7088 49.9146 107.7842 -58.7706 -75.3379 -0.0000 -0.0000 18.0053 14.6748 2.7195 0.7119 -7.1250 0.0000 -0.0000 -9.6378 32.6850 2.9430 0.0000 -0.0000 0.0000 79.0424 -8.8757 52.4352 -96.9064 59.8190 -65.9775 0.0000 0.0000 7.9324 -8.5761 -1.4085 0.2124 7.1250 -0.0000 -0.0000 14.2776 -31.2018 4.9523
0.00 0.00 0.00 174.8350 -2.2575 -174.4890 0.0000 0.0000 0.0000 -27.3681 -10.5551 -22.6961 4.9626 13.3416 40.6610 -1.1667 19.2695 -2.2468 0.2683 -3.3318 -9.2038 0.0000 0.0000 0.0000 17.3981 0.2983 -13.4057 -13.2974 -18.8869 70.0466 2.3849 -29.2632 3.2064 -1.6764 -8.1568 23.1913 -8.1503 2.2969 1.1646 -2.3045 2.8836 3.4554 2.1885 1.1391 2.6387 -3.4514 -2.3784 -36.0942 5.9687 -8.6992 42.2735 0.9959 -3.6176 27.3927 -0.0000 -0.0000 0.0000 -72.5981 28.5412 51.9276 101.0734 -59.5316 -69.5748 -0.0000 -0.0000 18.1075 17.2149 4.1884 1.2963 -7.1250 0.0000 -0.0000 -7.7565 34.2841 2.0554 -0.0000 -0.0000 0.0000 83.1326 -14.8177 44.4947 -84.0808 59.8672 -54.8761 0.0000 0.0000 10.8944 -10.2142 -3.8139 0.6867 7.1250 -0.0000 -0.0000 13.3682 -33.6239 3.8178
0.00 0.00 0.00 173.1130 -3.3644 -173.8200 0.0000 0.0000 0.0000 -30.7948 -7.9677 -13.6147 4.8170 13.1747 40.0262 -2.0145 24.2436 -11.6973 0.2123 -2.9665 -8.1855 0.0000 0.0000 0.0000 12.1364 6.1448 -31.7019 -16.9918 -19.7816 81.1739 2.5766 -27.3384 -6.1914 -1.9069 -8.6693 24.7662 -9.1922 0.4260 2.8945 -2.5847 0.1132 4.1905 2.4504 -0.3406 2.7046 -0.9215 -0.4913 -37.1067 3.3627 -5.7835 42.6631 -0.1265 -2.4859 27.3670 0.0000 0.0000 0.0000 -75.9799 10.4621 55.7936 95.8192 -59.8717 -65.0374 -0.0000 -0.0000 21.0497 16.9569 1.7596 0.5364 -7.1250 0.0000 -0.0000 -7.7110 31.7595 2.5176 0.0000 0.0000 0.0000 87.2348 -21.5499 29.1773 -56.3205 55.2469 -31.2981 0.0000 0.0000 6.9076 -12.9483 -6.7874 1.5565 7.1250 -0.0000 -0.0000 11.6493 -36.7204 2.4126
0.00 0.00 0.00 171.0930 -6.9485 -169.2590 0.0000 0.0000 0.0000 -32.2017 -5.7853 -2.0373 2.8241 10.4047 30.2973 -1.8230 23.0665 -8.8657 0.3128 -3.5953 -9.9407 0.0000 0.0000 0.0000 5.3919 10.8576 -48.7601 -11.7288 -18.2736 65.1265 3.1400 -29.5044 -12.1572 -1.9031 -8.6612 24.7412 -11.2255 -3.2380 2.8883 -1.7345 -4.7787 3.7260 4.4148 -2.8154 3.0376 3.7308 -0.7180 -40.0791 -0.8037 -0.4633 43.2786 -0.9463 1.3655 29.1313 0.0000 -0.0000 0.0000 -78.2360 -8.6364 60.8306 100.3017 -59.5952 -68.9094 -0.0000 -0.0000 20.9556 17.3676 2.5608 0.8006 -7.1250 0.0000 -0.0000 -7.4596 32.6008 2.2819 0.0000 -0.0000 0.0000 86.8255 -29.0669 15.3761 -35.8385 45.4017 -15.4074 0.0000 0.0000 8.0990 -12.3246 -7.8876 1.7174 7.1250 -0.0000 -0.0000 12.3741 -37.7817 2.2401
